<?xml version="1.0" standalone="no"?>
<!DOCTYPE svg PUBLIC "-//W3C//DTD SVG 20010904//EN"
 "http://www.w3.org/TR/2001/REC-SVG-20010904/DTD/svg10.dtd">
<svg version="1.0" xmlns="http://www.w3.org/2000/svg"
 width="2160.000000pt" height="2160.000000pt" viewBox="0 0 2160.000000 2160.000000"
 preserveAspectRatio="xMidYMid meet">
<metadata>
Created by potrace 1.14, written by Peter Selinger 2001-2017
</metadata>
<g transform="translate(0.000000,2160.000000) scale(0.100000,-0.100000)"
fill="#000000" stroke="none">
<path d="M10836 21033 c-1 -1 -183 -3 -406 -4 -296 -2 -421 -6 -469 -16 -80
-17 -121 -34 -121 -50 0 -8 -14 -13 -37 -14 -21 0 -47 -2 -58 -4 -24 -5 -194
-9 -215 -5 -16 3 -229 -9 -258 -15 -9 -1 -44 -6 -77 -9 -33 -4 -71 -9 -85 -11
-14 -3 -41 -7 -60 -9 -60 -8 -114 -17 -132 -22 -9 -3 -40 -9 -70 -14 -76 -13
-95 -17 -215 -46 -60 -14 -117 -27 -128 -30 -11 -2 -42 -10 -70 -18 -27 -8
-120 -35 -205 -60 -183 -54 -367 -113 -580 -189 -85 -31 -189 -67 -230 -82
-181 -64 -608 -237 -768 -311 -41 -19 -76 -34 -78 -34 -10 0 -412 -199 -462
-228 -28 -17 -52 -29 -52 -25 0 3 -8 -1 -17 -9 -10 -9 -38 -26 -63 -38 -151
-76 -753 -457 -1010 -640 -130 -92 -487 -372 -510 -400 -5 -6 -202 -168 -276
-226 -377 -300 -485 -395 -779 -689 -230 -229 -371 -381 -532 -570 -178 -210
-224 -266 -273 -330 -29 -38 -56 -72 -59 -75 -4 -3 -33 -41 -66 -85 -33 -44
-64 -84 -68 -90 -89 -113 -275 -390 -457 -680 -62 -99 -151 -238 -197 -308
-119 -181 -164 -281 -188 -426 -3 -18 -13 -47 -21 -63 -9 -17 -17 -38 -19 -48
-2 -10 -14 -42 -28 -71 -13 -30 -45 -104 -72 -166 -29 -67 -53 -109 -60 -107
-7 3 -36 -53 -75 -147 -34 -84 -95 -218 -135 -298 -175 -355 -227 -497 -319
-874 -45 -184 -60 -252 -82 -377 -4 -19 -8 -44 -11 -55 -5 -24 -32 -177 -39
-220 -7 -41 -12 -74 -18 -110 -9 -56 -25 -160 -31 -200 -3 -22 -8 -55 -11 -73
-3 -17 -7 -49 -10 -69 -2 -20 -6 -48 -8 -62 -3 -14 -8 -53 -12 -86 -3 -33 -8
-69 -10 -80 -2 -11 -6 -47 -9 -80 -3 -33 -7 -76 -10 -95 -2 -19 -7 -60 -10
-90 -3 -30 -8 -71 -10 -90 -5 -43 -13 -133 -20 -225 -3 -38 -7 -99 -10 -135
-10 -114 -22 -370 -30 -595 -6 -154 -6 -703 0 -860 5 -148 15 -358 20 -405 1
-19 6 -82 10 -140 3 -58 8 -118 10 -135 2 -16 7 -59 10 -95 3 -36 8 -85 11
-110 8 -72 25 -203 29 -230 2 -14 11 -76 20 -138 9 -62 18 -121 19 -130 2 -9
7 -37 12 -62 4 -25 8 -47 9 -50 1 -3 5 -25 9 -50 5 -25 10 -54 12 -65 21 -98
26 -123 30 -145 12 -61 58 -253 90 -378 127 -491 340 -1003 669 -1607 95 -174
86 -158 161 -290 32 -55 66 -116 76 -135 94 -180 397 -635 583 -876 120 -155
564 -696 741 -904 12 -14 78 -92 148 -175 69 -82 150 -179 181 -215 31 -36 67
-87 80 -113 75 -148 199 -273 440 -442 142 -100 260 -196 424 -344 14 -13 58
-53 96 -90 132 -125 270 -249 345 -312 119 -100 351 -269 369 -269 5 0 11 -3
13 -7 3 -8 175 -115 258 -161 25 -14 80 -45 123 -69 100 -56 512 -258 742
-363 177 -81 209 -95 410 -179 55 -23 114 -48 130 -56 88 -39 405 -161 580
-222 143 -49 335 -113 370 -123 17 -4 68 -20 115 -35 47 -14 126 -37 175 -51
50 -14 97 -27 105 -29 8 -3 40 -11 70 -19 30 -8 98 -25 150 -39 168 -44 503
-119 630 -142 19 -4 71 -13 115 -22 44 -8 94 -16 110 -19 17 -2 36 -6 44 -9 7
-3 41 -8 75 -11 33 -3 64 -8 67 -10 7 -4 49 -11 109 -18 19 -2 51 -7 70 -10
61 -10 110 -16 290 -36 226 -26 252 -29 330 -35 36 -3 85 -7 110 -9 110 -11
348 -23 595 -32 318 -11 905 -5 1065 11 19 2 71 6 115 9 119 10 175 15 223 21
23 3 63 8 90 11 41 5 181 25 267 40 250 41 588 136 837 235 156 62 170 69 165
90 -5 17 -2 19 88 59 254 113 319 140 338 140 12 0 47 10 77 21 30 12 186 66
345 119 245 83 480 165 720 250 141 51 413 170 620 273 361 180 717 396 1080
656 66 47 122 88 125 91 3 3 46 37 95 75 50 38 115 90 145 115 30 25 63 52 75
61 93 76 450 388 575 503 362 333 680 649 885 880 39 43 81 91 95 106 14 14
43 48 65 76 21 27 42 51 45 54 19 18 123 146 218 270 62 80 115 150 120 155
16 21 171 243 233 335 251 370 534 884 721 1310 33 74 65 149 73 165 173 383
376 1057 455 1510 5 33 12 70 14 81 2 12 7 37 10 55 3 19 8 45 11 59 2 13 7
42 10 65 3 22 12 76 20 120 7 44 16 103 20 130 3 28 15 109 25 180 10 72 22
155 25 185 3 30 8 66 10 80 4 29 11 90 20 175 4 33 8 71 10 85 2 14 7 60 10
103 4 43 8 88 11 100 2 12 6 51 9 87 3 36 7 85 10 110 2 25 7 74 10 110 2 36
7 90 9 120 6 65 13 157 21 260 5 73 7 107 22 385 14 275 6 1191 -11 1370 -2
22 -7 75 -10 117 -14 166 -36 297 -80 457 -18 70 -42 178 -51 241 -23 154 -24
162 -30 187 -3 12 -7 41 -10 65 -12 99 -51 272 -90 396 -9 29 -13 58 -9 64 15
24 15 131 0 198 -22 94 -43 151 -141 380 -46 107 -103 242 -126 300 -47 118
-112 273 -157 370 -78 171 -105 226 -423 878 -66 134 -149 296 -185 360 -59
103 -227 369 -243 382 -3 3 -26 32 -50 65 -43 58 -249 315 -261 325 -3 3 -41
48 -85 100 -44 52 -84 100 -90 106 -13 14 -100 115 -155 179 -24 28 -46 52
-49 55 -3 3 -24 25 -45 50 -22 25 -67 77 -101 115 -35 39 -120 135 -191 215
-70 80 -130 147 -133 150 -3 3 -31 34 -61 70 -30 36 -67 79 -81 95 -15 17 -80
91 -145 165 -65 74 -123 140 -129 146 -148 163 -203 221 -320 338 -239 240
-400 377 -750 640 -247 185 -348 256 -364 256 -6 0 -11 4 -11 8 0 5 -10 14
-22 20 -13 7 -50 28 -83 47 -85 51 -279 145 -309 151 -14 2 -37 9 -51 14 -14
5 -25 7 -25 5 0 -3 -35 16 -77 41 -234 138 -234 138 -231 159 3 17 -22 33
-157 100 -162 81 -254 124 -380 178 -38 16 -88 37 -110 47 -22 10 -96 41 -165
70 -292 122 -509 214 -558 236 -309 140 -831 291 -1167 339 -22 4 -47 8 -55
10 -8 2 -30 7 -47 10 -74 12 -103 17 -247 46 -83 16 -167 32 -186 35 -19 3
-43 7 -52 10 -10 3 -30 7 -45 10 -16 3 -39 7 -53 9 -119 22 -272 48 -305 51
-22 3 -51 7 -65 9 -14 3 -50 7 -80 11 -30 3 -66 7 -80 10 -14 2 -56 6 -95 10
-38 3 -80 7 -93 9 -12 2 -64 7 -115 10 -50 4 -105 8 -122 10 -65 7 -723 23
-729 18z m5808 -1842 c-2 -3 -12 3 -22 13 -16 17 -16 18 5 5 12 -7 20 -15 17
-18z m186 -137 c0 -3 -13 4 -30 16 -16 12 -30 24 -30 26 0 3 14 -4 30 -16 17
-12 30 -24 30 -26z m31 -21 c13 -16 12 -17 -3 -4 -17 13 -22 21 -14 21 2 0 10
-8 17 -17z m50 -40 c13 -16 12 -17 -3 -4 -17 13 -22 21 -14 21 2 0 10 -8 17
-17z m44 -33 c10 -11 16 -20 13 -20 -3 0 -13 9 -23 20 -10 11 -16 20 -13 20 3
0 13 -9 23 -20z m46 -37 c13 -16 12 -17 -3 -4 -17 13 -22 21 -14 21 2 0 10 -8
17 -17z m44 -33 c10 -11 16 -20 13 -20 -3 0 -13 9 -23 20 -10 11 -16 20 -13
20 3 0 13 -9 23 -20z m50 -40 c10 -11 16 -20 13 -20 -3 0 -13 9 -23 20 -10 11
-16 20 -13 20 3 0 13 -9 23 -20z m60 -50 c10 -11 16 -20 13 -20 -3 0 -13 9
-23 20 -10 11 -16 20 -13 20 3 0 13 -9 23 -20z m55 -45 c13 -14 21 -25 18 -25
-2 0 -15 11 -28 25 -13 14 -21 25 -18 25 2 0 15 -11 28 -25z m71 -62 c13 -16
12 -17 -3 -4 -17 13 -22 21 -14 21 2 0 10 -8 17 -17z"/>
</g>
</svg>
